<?xml version="1.0" standalone="no"?><!DOCTYPE svg PUBLIC "-//W3C//DTD SVG 1.1//EN" "http://www.w3.org/Graphics/SVG/1.1/DTD/svg11.dtd"><svg t="1588670963866" class="icon" viewBox="0 0 1024 1024" version="1.1" xmlns="http://www.w3.org/2000/svg" p-id="5309" xmlns:xlink="http://www.w3.org/1999/xlink" width="200" height="200"><defs><style type="text/css"></style></defs><path d="M688.6 219.5c0 17.6 14.3 31.9 31.9 31.9h54.3v79.8c0 17.6 14.3 31.9 31.9 31.9s31.9-14.3 31.9-31.9v-79.8h57.5c17.6 0 31.9-14.3 31.9-31.9s-14.3-31.9-31.9-31.9h-57.5v-57.5c0-17.6-14.3-31.9-31.9-31.9s-31.9 14.3-31.9 31.9v57.5h-54.3c-17.6 0-31.9 14.3-31.9 31.9zM283.2 672.8c-17.6 0-31.9 14.3-31.9 31.9s14.3 31.9 31.9 31.9h351.2c17.6 0 31.9-14.3 31.9-31.9s-14.3-31.9-31.9-31.9H283.2z" fill="#ffffff" p-id="5310"></path><path d="M746 704.8m-31.9 0a31.9 31.9 0 1 0 63.8 0 31.9 31.9 0 1 0-63.8 0Z" fill="#ffffff" p-id="5311"></path><path d="M896.1 315.3c-17.6 0-31.9 14.3-31.9 31.9v520.3H161.8V165.3h504.4c17.6 0 31.9-14.3 31.9-31.9 0-17.6-14.3-31.9-31.9-31.9H161.8c-35.2 0-63.8 28.6-63.8 63.8v702.3c0 35.2 28.6 63.8 63.8 63.8h702.3c35.2 0 63.8-28.6 63.8-63.8V347.2c0.1-17.6-14.2-31.9-31.8-31.9z" fill="#ffffff" p-id="5312"></path></svg>